<svg preserveAspectRatio="none" width="100%" height="100%" overflow="visible" style="display: block;" viewBox="0 0 86.8507 357.333" fill="none" xmlns="http://www.w3.org/2000/svg">
<g id="Group 79" opacity="0.3">
<path id="Vector 14" d="M1.66667 355.667V1.66667H81.5L85.1667 355.667H1.66667Z" stroke="var(--stroke-0, #FFD900)" stroke-opacity="0.8" stroke-width="3.33333"/>
<rect id="Rectangle 61" x="39.6668" y="313.029" width="3" height="11.8354" fill="var(--fill-0, #D9D9D9)"/>
<rect id="Rectangle 44" x="30.3335" y="221.077" width="2.66667" height="19.7257" fill="var(--fill-0, #878282)"/>
<rect id="Rectangle 45" x="17.0002" y="237.161" width="2.66667" height="19.7257" fill="var(--fill-0, white)"/>
<rect id="Rectangle 46" x="70.0002" y="235.037" width="2.66667" height="19.4222" fill="var(--fill-0, #B8B8B8)"/>
<rect id="Rectangle 47" x="52.0002" y="215.311" width="2.66667" height="19.7257" fill="var(--fill-0, #FDFDFD)"/>
<rect id="Rectangle 48" x="6.3335" y="227.146" width="2.66667" height="19.7257" fill="var(--fill-0, #C7C7C7)"/>
<rect id="Rectangle 49" x="40.3335" y="209.241" width="3" height="11.8354" fill="var(--fill-0, #D9D9D9)"/>
<rect id="Rectangle 50" x="40.3335" y="235.037" width="3" height="11.8354" fill="var(--fill-0, #D9D9D9)"/>
<rect id="Rectangle 51" x="40.3335" y="182.839" width="3" height="11.8354" fill="var(--fill-0, #D9D9D9)"/>
<rect id="Rectangle 52" x="40.3335" y="157.044" width="3" height="11.8354" fill="var(--fill-0, #D9D9D9)"/>
<rect id="Rectangle 53" x="40.3335" y="131.249" width="3" height="11.8354" fill="var(--fill-0, #D9D9D9)"/>
<rect id="Rectangle 54" x="40.3335" y="104.847" width="3" height="11.8354" fill="var(--fill-0, #D9D9D9)"/>
<rect id="Rectangle 55" x="40.3335" y="78.4451" width="3" height="11.8354" fill="var(--fill-0, #D9D9D9)"/>
<rect id="Rectangle 56" x="72.0002" y="23.2132" width="5" height="40.6652" fill="var(--fill-0, #D9D9D9)"/>
<rect id="Rectangle 60" x="6.66683" y="23.2132" width="5" height="40.6652" fill="var(--fill-0, #D9D9D9)"/>
<rect id="Rectangle 57" x="39.3335" y="23.2132" width="5" height="40.6652" fill="var(--fill-0, #D9D9D9)"/>
<rect id="Rectangle 59" x="22.6668" y="23.2132" width="5" height="40.6652" fill="var(--fill-0, #D9D9D9)"/>
<rect id="Rectangle 58" x="55.6668" y="23.2132" width="5" height="40.6652" fill="var(--fill-0, #D9D9D9)"/>
<path id="Vector 15" d="M28.5052 243.49L42.4896 247.365L56.6361 243.489L57.6888 243.2V247.534L57.4173 247.781L47.3138 257.004V278.47H48.8519L79.7786 259.492L81.0482 258.712V264.719L80.7777 264.966L67.7992 276.85V281.671L67.6722 281.874C67.548 282.072 67.3344 282.351 67.0618 282.595C66.8062 282.825 66.3895 283.124 65.8646 283.168C65.2528 283.219 64.7777 282.872 64.5179 282.631C64.2338 282.368 64.0177 282.056 63.8958 281.836L63.7913 281.648V280.614L58.3275 285.629V290.021L58.2523 290.186C58.1269 290.46 57.8925 290.86 57.5697 291.183C57.274 291.479 56.6846 291.919 55.9349 291.705C55.428 291.56 55.0577 291.241 54.8138 290.955C54.57 290.668 54.4051 290.359 54.3197 290.131L54.2669 289.991V289.416L47.2601 295.691L47.2601 312.006L47.2425 312.09C47.0358 313.086 46.5796 314.569 45.8577 315.778C45.1744 316.922 44.0135 318.191 42.347 317.903C40.8787 317.649 39.8414 316.487 39.1654 315.376C38.4723 314.236 38.0387 312.953 37.846 312.105L37.8255 312.014L37.8255 295.69L30.8724 289.424V289.963L30.8363 290.082C30.7478 290.372 30.5568 290.791 30.2376 291.137C29.9064 291.496 29.351 291.854 28.6165 291.724C27.9994 291.615 27.5794 291.267 27.3392 290.858C27.1305 290.502 27.0695 290.123 27.0775 289.839V285.634L21.4544 280.586V281.567L21.3734 281.737C21.2504 281.995 21.0211 282.361 20.6995 282.664C20.3874 282.957 19.8583 283.307 19.18 283.216C18.6327 283.143 18.1953 282.851 17.8997 282.589C17.5989 282.323 17.372 282.021 17.2425 281.801L17.1273 281.606V276.842L4.56478 264.958L4.30404 264.711V258.701L5.57747 259.495L36.0238 278.47H37.9847V257.007L27.7259 247.786L27.4495 247.538V243.197L28.5052 243.49Z" fill="var(--fill-0, #B9B9B9)" stroke="var(--stroke-0, #8F8F8F)" stroke-width="1.66667"/>
</g>
</svg>
