<svg preserveAspectRatio="none" width="100%" height="100%" overflow="visible" style="display: block;" viewBox="0 0 292.5 179.5" fill="none" xmlns="http://www.w3.org/2000/svg">
<g id="Group 80">
<g id="Rectangle 75">
<rect x="217.833" y="147.837" width="74.6667" height="30.6667" rx="3.33333" fill="var(--fill-0, #DC9804)" fill-opacity="0.1"/>
<rect x="218.667" y="148.67" width="73" height="29" rx="2.5" stroke="var(--stroke-0, #DC9804)" stroke-opacity="0.5" stroke-width="1.66667"/>
</g>
<path id="Vector 18" d="M218.689 148.538C219.768 148.004 217.79 136.857 216.667 131.35C240.036 127.067 286.911 118.5 287.45 118.5C290.281 123.039 290.764 140.417 290.652 148.538C266.215 148.761 217.611 149.072 218.689 148.538Z" fill="var(--fill-0, #DC9804)" fill-opacity="0.1" stroke="var(--stroke-0, #DC9804)" stroke-opacity="0.5" stroke-width="1.66667"/>
<path id="Vector 19" d="M210.344 114.333C211.144 114.2 214.789 125.722 216.511 131.5L286.511 118.667C285.177 105.2 278.844 88.2778 275.844 81.5C253.677 92.5 209.544 114.467 210.344 114.333Z" fill="var(--fill-0, #DC9804)" fill-opacity="0.1" stroke="var(--stroke-0, #DC9804)" stroke-opacity="0.5" stroke-width="1.66667"/>
<path id="Vector 20" d="M195.333 92.8333C200.533 97.9 207.722 109.389 210.667 114.5L275.5 81C273.1 71.5333 256.278 52.2778 248.167 43.8333L195.333 92.8333Z" fill="var(--fill-0, #DC9804)" fill-opacity="0.1" stroke="var(--stroke-0, #DC9804)" stroke-opacity="0.5" stroke-width="1.66667"/>
<path id="Vector 21" d="M170.333 75.8591C177.667 76.2625 190.5 87.3433 196 92.8333L248.333 43.4233C237.933 30.6506 213.778 17.4858 203 12.5L170.333 75.8591Z" fill="var(--fill-0, #DC9804)" fill-opacity="0.1" stroke="var(--stroke-0, #DC9804)" stroke-opacity="0.5" stroke-width="1.66667"/>
<path id="Vector 22" d="M145 70.3372C154.333 69.9372 165.667 72.9483 170.167 74.5038L203 13.0038C182.467 3.0038 156.445 0.726024 146 0.837135L145 70.3372Z" fill="var(--fill-0, #DC9804)" fill-opacity="0.1" stroke="var(--stroke-0, #DC9804)" stroke-opacity="0.5" stroke-width="1.66667"/>
<g id="Rectangle 76">
<rect width="74.6667" height="30.6667" rx="3.33333" transform="matrix(-1 0 0 1 74.6667 148.833)" fill="var(--fill-0, #DC9804)" fill-opacity="0.1"/>
<rect x="-0.833333" y="0.833333" width="73" height="29" rx="2.5" transform="matrix(-1 0 0 1 73.0001 148.833)" stroke="var(--stroke-0, #DC9804)" stroke-opacity="0.5" stroke-width="1.66667"/>
</g>
<path id="Vector 23" d="M72.6626 148.538C71.5937 148.004 73.5533 136.857 74.6667 131.35C51.5076 127.067 5.05564 118.5 4.5212 118.5C1.71538 123.039 1.2366 140.417 1.34795 148.538C25.5649 148.761 73.7315 149.072 72.6626 148.538Z" fill="var(--fill-0, #DC9804)" fill-opacity="0.1" stroke="var(--stroke-0, #DC9804)" stroke-opacity="0.5" stroke-width="1.66667"/>
<path id="Vector 24" d="M80.656 114.333C79.8579 114.2 76.2219 125.722 74.5037 131.5L4.66675 118.667C5.99698 105.2 12.3156 88.2778 15.3086 81.5C37.4236 92.5 81.4542 114.467 80.656 114.333Z" fill="var(--fill-0, #DC9804)" fill-opacity="0.1" stroke="var(--stroke-0, #DC9804)" stroke-opacity="0.5" stroke-width="1.66667"/>
<path id="Vector 25" d="M96.3334 92.5C91.1442 97.5667 83.9703 109.056 81.032 114.167L16.3334 80.6667C18.7284 71.2 35.5157 51.9444 43.6099 43.5L96.3334 92.5Z" fill="var(--fill-0, #DC9804)" fill-opacity="0.1" stroke="var(--stroke-0, #DC9804)" stroke-opacity="0.5" stroke-width="1.66667"/>
<path id="Vector 26" d="M122 75.8591C114.667 76.2625 101.833 87.3433 96.3334 92.8333L44.0001 43.4233C54.4001 30.6506 78.5556 17.4858 89.3334 12.5L122 75.8591Z" fill="var(--fill-0, #DC9804)" fill-opacity="0.1" stroke="var(--stroke-0, #DC9804)" stroke-opacity="0.5" stroke-width="1.66667"/>
<path id="Vector 27" d="M146.667 70.3335C137.333 69.9336 126 72.9445 121.5 74.5L88.6667 13.0032C109.2 3.00369 135.222 0.72603 145.667 0.837135L146.667 70.3335Z" fill="var(--fill-0, #DC9804)" fill-opacity="0.1" stroke="var(--stroke-0, #DC9804)" stroke-opacity="0.5" stroke-width="1.66667"/>
</g>
</svg>
