<svg preserveAspectRatio="none" width="100%" height="100%" overflow="visible" style="display: block;" viewBox="0 0 482.622 270.5" fill="none" xmlns="http://www.w3.org/2000/svg">
<g id="Group 77">
<path id="Vector 13" d="M398 250.5H389.333L393.167 270.5L407.667 264.167L409.667 260.167L430.833 248L432.667 241L424.167 228.333L418.667 232.667L424.167 241L405.667 252.833L398 250.5Z" fill="var(--fill-0, #474747)" fill-opacity="0.4"/>
<g id="Vector 2">
<path d="M410.593 233.13L422.759 224.154L423.792 213.637L422.115 214.874C421.749 215.004 420.942 215.113 420.645 214.514C420.347 213.914 420.734 213.465 420.964 213.315L424.318 210.84L425.173 201.96L423.223 203.398C422.854 203.47 422.046 203.484 421.763 202.97C421.48 202.456 421.66 201.742 421.785 201.449L425.372 198.802L427.33 182.845L430.371 180.602L432.943 213.39L434.583 215.612L451.194 203.357L452.439 190.516L454.544 188.962L459.34 201.502L469.993 209.902L467.887 211.455L455.336 208.972L438.725 221.227L440.135 223.138L470.963 235.621L467.921 237.865L451.867 234.715L448.241 237.39C447.937 237.414 447.253 237.373 446.945 237.022C446.638 236.67 446.837 235.977 446.975 235.675L448.964 234.208L440.313 232.521L436.959 234.995C436.542 235.082 435.658 235.124 435.46 234.595C435.263 234.067 435.514 233.472 435.665 233.24L437.342 232.003L426.959 229.847L414.793 238.823C413.205 239.553 409.798 240.557 408.882 238.728C407.966 236.899 409.641 234.234 410.593 233.13Z" fill="var(--fill-0, #474747)" fill-opacity="0.4"/>
<path d="M455.323 188.665L460.035 200.989L470.508 209.247L471.367 209.923L468.086 212.344L467.725 212.273L455.535 209.861L439.89 221.403L440.665 222.454L471.276 234.849L472.655 235.408L468.121 238.753L467.761 238.683L452.068 235.603L448.543 238.203L448.305 238.221C448.086 238.238 447.76 238.232 447.426 238.162C447.114 238.098 446.65 237.95 446.318 237.571C445.929 237.126 445.928 236.564 445.965 236.237C446.005 235.877 446.12 235.542 446.217 235.328L446.307 235.132L446.944 234.662L440.513 233.408L437.308 235.773L437.13 235.811C436.856 235.868 436.427 235.914 436.004 235.85C435.619 235.792 434.942 235.591 434.679 234.887C434.505 234.419 434.541 233.959 434.621 233.617C434.701 233.275 434.841 232.978 434.966 232.786L435.049 232.659L435.346 232.44L427.155 230.738L415.219 239.544L415.142 239.58C414.296 239.969 412.953 240.439 411.666 240.565C410.454 240.683 408.85 240.523 408.137 239.101C407.515 237.858 407.814 236.444 408.266 235.341C408.73 234.208 409.441 233.19 409.963 232.586L410.023 232.515L421.967 223.703L422.78 215.42L422.51 215.619L422.394 215.66C422.125 215.755 421.703 215.844 421.263 215.795C420.805 215.745 420.216 215.523 419.899 214.884C419.635 214.352 419.662 213.834 419.84 213.418C419.994 213.059 420.249 212.8 420.471 212.646L420.469 212.644L423.525 210.39L424.165 203.74L423.566 204.181L423.382 204.217C423.119 204.267 422.718 204.298 422.311 204.223C421.918 204.152 421.349 203.946 421.033 203.372C420.78 202.913 420.758 202.418 420.791 202.052C420.824 201.679 420.924 201.342 421.018 201.122L421.107 200.913L424.589 198.344L426.502 182.745L426.546 182.388L431.085 179.04L431.202 180.536L433.754 213.087L434.758 214.447L450.401 202.906L451.609 190.435L451.645 190.065L454.931 187.641L455.323 188.665Z" stroke="var(--stroke-0, #858585)" stroke-opacity="0.4" stroke-width="1.66667"/>
</g>
<g id="Vector 3">
<path d="M367.705 155.974L380.258 144.692L380.273 132.895L378.543 134.449C378.151 134.633 377.266 134.841 376.871 134.207C376.476 133.573 376.857 133.032 377.097 132.84L380.557 129.73L380.551 119.771L378.54 121.579C378.138 121.698 377.241 121.801 376.871 121.26C376.502 120.719 376.624 119.906 376.732 119.567L380.433 116.24L380.891 98.2995L384.029 95.4789L390.415 131.635L392.476 133.928L409.615 118.523L409.616 104.12L411.789 102.168L418.467 115.586L431.208 123.772L429.035 125.725L414.822 124.316L397.683 139.721L399.455 141.693L435.053 152.246L431.915 155.067L413.738 153.294L409.996 156.657C409.661 156.716 408.896 156.744 408.517 156.387C408.137 156.029 408.284 155.238 408.405 154.887L410.457 153.043L400.663 152.099L397.203 155.209C396.748 155.351 395.77 155.493 395.494 154.927C395.218 154.36 395.433 153.672 395.576 153.399L397.305 151.844L385.537 150.566L372.985 161.848C371.298 162.831 367.621 164.312 366.406 162.378C365.192 160.444 366.766 157.303 367.705 155.974Z" fill="var(--fill-0, #474747)" fill-opacity="0.4"/>
<path d="M412.535 101.797L419.11 115.008L431.658 123.071L432.578 123.662L429.319 126.591L428.953 126.554L415.106 125.182L398.861 139.784L399.919 140.962L435.29 151.448L436.717 151.871L432.199 155.932L431.834 155.896L414.022 154.158L410.375 157.436L410.14 157.478C409.907 157.519 409.552 157.547 409.184 157.507C408.838 157.469 408.332 157.358 407.945 156.993C407.495 156.57 407.435 155.98 407.441 155.621C407.447 155.23 407.535 154.856 407.617 154.616L407.687 154.411L408.489 153.69L400.947 152.964L397.624 155.95L397.451 156.005C397.16 156.096 396.7 156.19 396.238 156.166C395.815 156.143 395.089 155.997 394.745 155.292C394.512 154.814 394.502 154.32 394.552 153.942C394.603 153.565 394.723 153.232 394.836 153.014L394.906 152.88L395.362 152.47L385.818 151.434L373.478 162.526L373.405 162.568C372.512 163.088 371.081 163.75 369.679 164.025C368.35 164.286 366.61 164.27 365.701 162.822C364.898 161.544 365.069 159.975 365.45 158.709C365.84 157.412 366.516 156.214 367.025 155.493L367.078 155.417L379.426 144.318L379.438 134.766L379.008 135.152L378.896 135.204C378.617 135.334 378.172 135.474 377.696 135.468C377.203 135.461 376.561 135.286 376.164 134.648C375.829 134.111 375.807 133.561 375.952 133.105C376.078 132.708 376.322 132.406 376.54 132.221L379.724 129.359L379.72 121.639L378.957 122.325L378.776 122.378C378.499 122.46 378.069 122.535 377.623 122.498C377.191 122.461 376.573 122.299 376.184 121.73C375.869 121.27 375.792 120.744 375.79 120.343C375.787 119.936 375.859 119.561 375.937 119.315L376.005 119.099L379.609 115.86L380.058 98.2784L380.067 97.92L384.589 93.8556L384.85 95.3334L391.193 131.253L392.539 132.751L408.782 118.152L408.783 104.121L408.783 103.749L412.047 100.816L412.535 101.797Z" stroke="var(--stroke-0, #575656)" stroke-opacity="0.4" stroke-width="1.66667"/>
</g>
<g id="Vector 4">
<path d="M282.305 101.029L286.333 78.2257L276.378 65.4633L275.822 68.6061C275.553 69.1363 274.773 70.109 273.81 69.758C272.847 69.407 272.801 68.4996 272.899 68.0897L274.009 61.804L265.584 51.0454L264.938 54.6999C264.604 55.1684 263.722 56.0377 262.866 55.7658C262.009 55.4939 261.454 54.5115 261.284 54.0543L262.472 47.3302L247.801 27.5545L248.808 21.8536L286.272 55.5288L290.438 56.2647L295.938 25.1287L283.764 9.56269L284.462 5.61588L303.021 14.4715L323.71 12.5486L323.013 16.4954L306.463 26.9878L300.963 58.1237L304.545 58.7563L351.936 40.0698L350.929 45.7708L329.787 59.2204L328.586 66.0177C328.274 66.3645 327.471 67.0416 326.759 66.9762C326.047 66.9107 325.536 65.9312 325.37 65.4496L326.029 61.7221L314.647 68.9821L313.536 75.2677C313.165 75.8051 312.228 76.7853 311.451 76.4068C310.674 76.0283 310.325 75.1024 310.247 74.6868L310.803 71.544L297.004 80.1106L292.976 102.914C291.984 105.402 289.263 110.112 286.315 109.049C283.368 107.985 282.414 103.259 282.305 101.029Z" fill="var(--fill-0, #474747)" fill-opacity="0.4"/>
<path d="M284.821 4.86415L303.171 13.6202L323.633 11.7188L324.721 11.6175L323.77 17.0029L323.46 17.1989L307.22 27.495L301.929 57.4483L304.457 57.8949L351.631 39.2943L353.016 38.7487L351.686 46.2767L351.377 46.4739L330.543 59.7259L329.365 66.398L329.206 66.5751C329.004 66.7984 328.666 67.1082 328.262 67.3595C327.877 67.5986 327.308 67.8638 326.682 67.8064C325.97 67.7409 325.476 67.2434 325.195 66.8724C324.894 66.475 324.688 66.0273 324.582 65.7218L324.512 65.5171L324.879 63.4437L315.404 69.4873L314.325 75.5921L314.222 75.7413C313.998 76.065 313.605 76.526 313.124 76.8634C312.674 77.1786 311.897 77.5507 311.086 77.1559C310.502 76.8715 310.113 76.4008 309.868 75.9829C309.623 75.565 309.484 75.1374 309.428 74.8392L309.4 74.6904L309.657 73.2354L297.76 80.6214L293.782 103.144L293.75 103.223C293.233 104.52 292.263 106.41 291.01 107.858C289.806 109.25 288.041 110.557 286.033 109.832C284.214 109.176 283.117 107.442 282.469 105.779C281.809 104.085 281.531 102.254 281.473 101.07L281.468 100.977L285.448 78.4456L276.873 67.4513L276.621 68.8727L276.565 68.9837C276.389 69.3296 276.054 69.8153 275.581 70.1755C275.094 70.5463 274.361 70.8461 273.524 70.541C272.799 70.2766 272.375 69.772 272.176 69.2358C271.999 68.758 272.008 68.2809 272.079 67.9444L272.078 67.9442L273.124 62.0241L266.08 53.03L265.726 55.0302L265.617 55.1835C265.404 55.4827 265.028 55.8973 264.555 56.2076C264.092 56.5108 263.387 56.8054 262.614 56.56C261.966 56.3544 261.486 55.9026 261.164 55.4977C260.839 55.0875 260.617 54.6496 260.503 54.3456L260.424 54.1332L261.589 47.5381L247.132 28.0515L246.918 27.7629L248.249 20.2301L249.365 21.2334L286.652 54.7498L289.763 55.2993L295.053 25.3489L283.108 10.0763L282.879 9.78301L283.831 4.39186L284.821 4.86415Z" stroke="var(--stroke-0, #A2A2A2)" stroke-opacity="0.4" stroke-width="1.66667"/>
</g>
<path id="Vector 10" d="M187.167 89L184.833 94.6666L190 100.167L174.833 141.667L177.5 158L194.333 149.167L187.167 138.5L199.167 98.6666L187.167 89Z" fill="var(--fill-0, #474747)" fill-opacity="0.4"/>
<path id="Vector 11" d="M259.333 129.5V139.167H240V129.5L248.667 118.5L261.5 76.1666L287.5 83.8333L285.833 90.1666L266.333 83.8333L256.5 119.667V129.5H259.333Z" fill="var(--fill-0, #474747)" fill-opacity="0.4"/>
<path id="Vector 12" d="M360.833 180.833L354.333 186.667L366.833 202L373.667 196.667L379.167 185.167L399.333 167.833L401.333 163.667L380.833 152L376.667 155.833L390 163.667L373.667 178.833L360.833 180.833Z" fill="var(--fill-0, #474747)" fill-opacity="0.4"/>
<g id="Vector 6">
<path d="M112.997 140.243L102.686 127.536L91.263 126.944L92.6841 128.695C92.8425 129.084 93.0009 129.951 92.3676 130.303C91.7344 130.654 91.2287 130.259 91.055 130.017L88.2128 126.514L78.568 126.033L80.2205 128.069C80.3161 128.464 80.3719 129.338 79.8303 129.669C79.2887 130.001 78.5072 129.842 78.1841 129.722L75.1436 125.975L57.793 124.654L55.2152 121.477L90.5388 117.062L92.8603 115.178L78.7812 97.8279L64.8344 97.1223L63.0497 94.923L76.3695 89.1126L84.9202 77.1754L86.7049 79.3747L84.6459 93.0688L98.725 110.419L100.721 108.799L112.681 74.8441L115.259 78.0208L112.653 95.5359L115.727 99.3236C115.767 99.651 115.757 100.393 115.393 100.743C115.028 101.093 114.269 100.912 113.935 100.778L112.249 98.7007L110.857 108.139L113.699 111.641C113.814 112.088 113.904 113.042 113.342 113.282C112.78 113.522 112.124 113.28 111.867 113.129L110.446 111.377L108.632 122.711L118.944 135.417C119.813 137.099 121.068 140.732 119.136 141.814C117.203 142.895 114.238 141.217 112.997 140.243Z" fill="var(--fill-0, #474747)" fill-opacity="0.4"/>
<path d="M62.7166 94.1595L75.8243 88.4414L84.2426 76.6902L84.8787 75.8018L87.5837 79.1353L87.5292 79.499L85.5248 92.8292L98.8471 109.246L100.013 108.301L111.896 74.5672L112.39 73.1628L116.137 77.7808L116.083 78.1431L113.532 95.2953L116.525 98.9836L116.554 99.2214C116.583 99.4516 116.592 99.7984 116.535 100.156C116.482 100.491 116.347 100.982 115.97 101.344C115.53 101.766 114.948 101.796 114.598 101.773C114.215 101.748 113.855 101.644 113.624 101.551L113.424 101.471L112.797 100.697L111.734 107.897L114.461 111.257L114.506 111.433C114.581 111.722 114.65 112.175 114.604 112.625C114.561 113.036 114.382 113.744 113.669 114.048C113.188 114.254 112.705 114.239 112.339 114.171C111.973 114.103 111.653 113.97 111.445 113.848L111.315 113.771L110.974 113.351L109.513 122.474L119.644 134.959L119.684 135.035C120.144 135.926 120.716 137.347 120.915 138.722C121.102 140.023 121.004 141.722 119.543 142.541C118.256 143.261 116.737 143.016 115.527 142.584C114.287 142.142 113.158 141.428 112.483 140.898L112.409 140.84L102.272 128.348L93.0903 127.873L93.4096 128.266L93.456 128.381C93.5693 128.659 93.6839 129.101 93.6542 129.566C93.6233 130.049 93.4194 130.672 92.772 131.031C92.2287 131.333 91.6875 131.328 91.2462 131.163C90.8634 131.019 90.5792 130.765 90.4082 130.542L87.7998 127.328L80.3923 126.958L80.9868 127.69L81.0309 127.873C81.0974 128.148 81.1487 128.572 81.0902 129.005C81.0334 129.425 80.845 130.025 80.2653 130.38C79.7981 130.665 79.2791 130.715 78.8888 130.698C78.4917 130.681 78.1296 130.591 77.8927 130.503L77.6796 130.423L74.7222 126.778L57.7301 125.484L57.3725 125.458L53.6226 120.836L55.1117 120.651L90.1995 116.264L91.688 115.056L78.3675 98.641L64.7925 97.9545L64.4216 97.936L61.7122 94.5972L62.7166 94.1595Z" stroke="var(--stroke-0, #8C8A8A)" stroke-opacity="0.4" stroke-width="1.66667"/>
</g>
<g id="Vector 7">
<path d="M73.3725 226.28L60.1195 216.681L48.9334 219.07L50.76 220.393C51.0138 220.728 51.3915 221.524 50.8711 222.028C50.3507 222.532 49.7597 222.281 49.5293 222.092L45.8762 219.446L36.4363 221.481L38.5602 223.02C38.755 223.377 39.0352 224.206 38.5981 224.666C38.1609 225.127 37.3651 225.176 37.0218 225.144L33.1139 222.313L16.014 225.535L12.7008 223.135L45.6723 209.714L47.4261 207.293L29.3307 194.186L15.6777 197.119L13.3839 195.458L24.7422 186.393L29.9061 172.648L32.1999 174.309L33.7612 188.069L51.8566 201.176L53.3642 199.094L56.1138 163.199L59.4271 165.599L61.4508 183.191L65.4012 186.053C65.5252 186.358 65.7078 187.078 65.4465 187.51C65.1851 187.943 64.4049 187.965 64.0475 187.922L61.8811 186.352L62.983 195.829L66.636 198.475C66.863 198.877 67.1969 199.775 66.7164 200.152C66.2359 200.529 65.5396 200.466 65.2515 200.386L63.425 199.063L64.6116 210.479L77.8646 220.079C79.1398 221.477 81.2938 224.661 79.7081 226.207C78.1223 227.752 74.8236 226.9 73.3725 226.28Z" fill="var(--fill-0, #474747)" fill-opacity="0.4"/>
<path d="M12.8643 194.807L24.0416 185.886L29.1258 172.355L29.5099 171.332L32.9866 173.85L33.0282 174.215L34.5479 187.61L51.6707 200.012L52.5511 198.796L55.2835 163.136L55.3966 161.651L60.2131 165.14L60.2545 165.504L62.2366 182.731L66.0835 185.518L66.1735 185.74C66.2607 185.955 66.3599 186.287 66.3977 186.647C66.433 186.985 66.4303 187.493 66.1598 187.941C65.8442 188.463 65.2894 188.643 64.9458 188.711C64.5698 188.786 64.1944 188.779 63.9477 188.749L63.7338 188.723L62.9271 188.139L63.7673 195.368L67.2726 197.907L67.3615 198.065C67.5079 198.324 67.6926 198.744 67.7645 199.19C67.8302 199.599 67.8405 200.329 67.2308 200.808C66.8196 201.13 66.3486 201.242 65.9776 201.271C65.6067 201.3 65.2631 201.254 65.0304 201.19L64.8848 201.15L64.4466 200.832L65.4012 210.023L78.4224 219.454L78.4801 219.518C79.1562 220.259 80.0767 221.482 80.6249 222.759C81.1433 223.967 81.4892 225.634 80.2896 226.803C79.2339 227.832 77.7026 227.99 76.4229 227.886C75.1106 227.78 73.8345 227.384 73.0454 227.047L72.959 227.01L59.9299 217.573L50.9392 219.494L51.3496 219.791L51.4241 219.89C51.6058 220.13 51.8307 220.526 51.9227 220.983C52.018 221.457 51.9826 222.112 51.4505 222.627C51.004 223.059 50.4801 223.195 50.011 223.149C49.604 223.11 49.2638 222.939 49.0408 222.768L45.6882 220.339L38.438 221.902L39.202 222.455L39.2921 222.62C39.4277 222.869 39.587 223.265 39.6427 223.698C39.6967 224.118 39.6703 224.747 39.2024 225.24C38.8253 225.637 38.3369 225.819 37.9555 225.904C37.5675 225.99 37.1946 225.998 36.9429 225.974L36.7163 225.952L32.9153 223.199L16.1686 226.354L15.8163 226.42L10.9966 222.929L12.3866 222.364L45.1378 209.031L46.2623 207.479L29.1419 195.078L15.853 197.934L15.49 198.012L12.0077 195.49L12.8643 194.807Z" stroke="var(--stroke-0, #7B7B7B)" stroke-opacity="0.4" stroke-width="1.66667"/>
</g>
<path id="Vector 8" d="M91.9338 253.186L106.805 252.265C107.741 252.207 105.079 263.397 103.63 269L91.9338 265.008L52.6667 235.683L62.8594 218.333H72.3838L62.8594 232.151L91.9338 253.186Z" fill="var(--fill-0, #474747)" fill-opacity="0.4"/>
<path id="Vector 9" d="M144.333 184.333L133.265 199L97.6667 150.333V145.833L111.427 128L114.12 133L105.744 145.833L144.333 184.333Z" fill="var(--fill-0, #474747)" fill-opacity="0.4"/>
<g id="Vector 5">
<path d="M178.296 96.5261L184.589 82.4965L180.249 72.6639L179.382 74.5974C179.122 74.8951 178.462 75.3949 177.899 75.0127C177.336 74.6305 177.454 74.0387 177.583 73.7907L179.318 69.9235L175.638 61.6294L174.63 63.8777C174.339 64.1252 173.63 64.5418 173.122 64.2278C172.615 63.9138 172.417 63.1913 172.381 62.8692L174.237 58.7323L167.999 43.619L169.572 40.1116L188.232 67.8724L190.795 69.0221L199.387 49.8664L194.074 37.8687L195.163 35.4405L205.677 44.1534L219.31 46.2717L218.221 48.6999L205.863 52.7708L197.27 71.9266L199.474 72.9149L233.02 68.5713L231.447 72.0787L215.651 77.3087L213.775 81.4906C213.518 81.6632 212.891 81.969 212.443 81.8113C211.996 81.6537 211.826 80.9402 211.797 80.6031L212.826 78.3099L204.319 81.138L202.585 85.0051C202.258 85.2909 201.496 85.77 201.057 85.4002C200.618 85.0304 200.543 84.3776 200.561 84.0974L201.428 82.1639L191.154 85.4413L184.861 99.4709C183.819 100.912 181.302 103.503 179.577 102.34C177.852 101.177 178.004 97.9795 178.296 96.5261Z" fill="var(--fill-0, #474747)" fill-opacity="0.4"/>
<path d="M195.695 34.7994L206.031 43.3635L219.438 45.4482L220.518 45.6157L218.831 49.3767L218.482 49.4911L206.472 53.4468L198.371 71.5071L199.599 72.0578L232.913 67.745L234.389 67.5531L232.057 72.754L231.708 72.8696L216.262 77.9834L214.438 82.0501L214.24 82.1826C214.055 82.3062 213.763 82.463 213.434 82.5683C213.127 82.6666 212.646 82.7656 212.167 82.5971C211.606 82.3995 211.326 81.9076 211.196 81.6006C211.053 81.2634 210.987 80.9115 210.967 80.6748L210.948 80.4588L211.289 79.6987L204.931 81.8119L203.271 85.5123L203.134 85.6317C202.92 85.8187 202.565 86.0726 202.16 86.2269C201.792 86.3675 201.099 86.5246 200.52 86.037C200.134 85.712 199.937 85.2901 199.838 84.9485C199.738 84.6071 199.715 84.2765 199.729 84.0447L199.739 83.8939L199.905 83.5241L191.763 86.1214L185.586 99.8905L185.536 99.959C184.982 100.726 184.029 101.811 182.953 102.564C181.939 103.274 180.445 103.93 179.111 103.031C177.944 102.244 177.504 100.847 177.353 99.6459C177.199 98.4118 177.319 97.1563 177.479 96.3618L177.497 96.2705L183.677 82.4934L180.243 74.7132L180.091 75.0518L180.01 75.1449C179.82 75.362 179.494 75.6511 179.082 75.8268C178.654 76.0095 178.026 76.1053 177.431 75.7017C176.935 75.3649 176.702 74.8957 176.653 74.4418C176.61 74.0497 176.705 73.695 176.823 73.4499L178.405 69.9214L175.634 63.6747L175.313 64.3902L175.169 64.513C174.963 64.6883 174.624 64.9137 174.23 65.0504C173.847 65.1828 173.246 65.2838 172.684 64.9361C172.235 64.658 171.968 64.234 171.815 63.8947C171.659 63.5489 171.58 63.2016 171.554 62.9606L171.528 62.7352L173.33 58.7185L167.229 43.9367L167.092 43.6055L169.427 38.4009L170.263 39.6465L188.791 67.2098L190.375 67.9204L198.475 49.8637L193.312 38.2063L193.162 37.866L194.851 34.0996L195.695 34.7994Z" stroke="var(--stroke-0, #606060)" stroke-opacity="0.4" stroke-width="1.66667"/>
</g>
</g>
</svg>
