<svg preserveAspectRatio="none" width="100%" height="100%" overflow="visible" style="display: block;" viewBox="0 0 78.4108 76.6783" fill="none" xmlns="http://www.w3.org/2000/svg">
<g id="Vector 15">
<path d="M35.1882 69.8197V53.2186L26.5683 45.4501V47.7381C26.4442 48.146 26.015 48.93 25.2913 48.8023C24.5677 48.6746 24.4223 48.0396 24.44 47.7381V43.1621L17.1504 36.6175V39.2779C16.973 39.6504 16.4587 40.374 15.8202 40.2889C15.1817 40.2037 14.6673 39.5794 14.49 39.2779V34.3827L1.66667 22.2511V18.1008L32.3149 37.2028H35.3478V14.5358L24.8125 5.06469V2.19142L39.0192 6.12886L53.3855 2.19142V5.06469L43.0098 14.5358V37.2028H45.6171L76.7442 18.1008V22.2511L63.4952 34.3827V39.3311C63.3178 39.6149 62.8354 40.1931 62.3246 40.2356C61.8138 40.2782 61.3314 39.6504 61.154 39.3311V36.6175L54.024 43.1621V47.7381C53.8289 48.1637 53.2898 48.9725 52.6938 48.8023C52.0979 48.632 51.7361 48.0219 51.6297 47.7381V45.4501L42.9566 53.2186V69.8197C42.5664 71.6997 41.2327 75.364 39.0192 74.9809C36.8057 74.5978 35.5429 71.3805 35.1882 69.8197Z" fill="var(--fill-0, #B9B9B9)" fill-opacity="0.4"/>
<path d="M25.0348 1.38868L39.0192 5.26368L53.1657 1.38771L54.2184 1.09864V5.43263L53.9469 5.6797L43.8434 14.9033V36.3692H45.3815L76.3083 17.3906L77.5778 16.6113V22.6182L77.3073 22.8652L64.3288 34.749V39.5703L64.2018 39.7725C64.0776 39.9712 63.864 40.2497 63.5915 40.4942C63.3359 40.7234 62.9191 41.0226 62.3942 41.0664C61.7824 41.1174 61.3073 40.7712 61.0475 40.5303C60.7635 40.2669 60.5474 39.9548 60.4255 39.7354L60.321 39.5469V38.5127L54.8571 43.5283V47.9199L54.7819 48.085C54.6565 48.3585 54.4221 48.7586 54.0993 49.082C53.8036 49.3783 53.2142 49.8177 52.4645 49.6035C51.9576 49.4586 51.5873 49.1398 51.3434 48.8535C51.0996 48.5673 50.9348 48.2583 50.8493 48.0303L50.7965 47.8897V47.3145L43.7897 53.5899V69.9053L43.7721 69.9893C43.5654 70.9853 43.1093 72.4681 42.3874 73.6768C41.704 74.8209 40.5431 76.0902 38.8766 75.8018C37.4084 75.5474 36.371 74.3863 35.695 73.2744C35.002 72.1344 34.5683 70.8517 34.3757 70.0039L34.3551 69.9131V53.5889L27.402 47.3233V47.8623L27.3659 47.9805C27.2774 48.2711 27.0864 48.6903 26.7673 49.0361C26.4361 49.3949 25.8806 49.7527 25.1462 49.6231C24.529 49.5141 24.1091 49.1664 23.8688 48.7568C23.6601 48.401 23.5991 48.0215 23.6071 47.7383V43.5332L17.984 38.4854V39.4658L17.903 39.6358C17.78 39.894 17.5508 40.2601 17.2292 40.5625C16.917 40.856 16.3879 41.2057 15.7096 41.1152C15.1623 41.0422 14.7249 40.7503 14.4294 40.4883C14.1285 40.2216 13.9016 39.9203 13.7721 39.7002L13.6569 39.5049V34.7412L1.0944 22.8565L0.833659 22.6104V16.5996L2.1071 17.3936L32.5534 36.3692H34.5143V14.9063L24.2555 5.68458L23.9792 5.43653V1.09571L25.0348 1.38868Z" stroke="var(--stroke-0, #8F8F8F)" stroke-opacity="0.6" stroke-width="1.66667"/>
</g>
</svg>
